<svg style="display: none;" aria-hidden="true" xmlns="http://www.w3.org/2000/svg" xmlns:xlink="http://www.w3.org/1999/xlink"><symbol viewBox="0 0 43 10" fill="currentColor" id="svg-arrow" xmlns="http://www.w3.org/2000/svg"><path d="M6.98027 1.14798L2.66902 4.89162L6.99168 8.62208L5.6579 9.7721L0.00736121 4.89568L5.64299 0.00203921L6.98027 1.14798Z"/><path d="M42.093 3.93262L42.0961 5.94453L2.00616 6.00575L2.00308 3.99383L42.093 3.93262Z"/></symbol><symbol viewBox="0 0 13 8" fill="currentColor" id="svg-arrow-spoiler" xmlns="http://www.w3.org/2000/svg"><path d="M6.15474 7.85208L0.143181 1.69211C-0.0477269 1.49489 -0.0477269 1.17598 0.143181 0.978757L0.94743 0.147915C1.13834 -0.049305 1.44704 -0.049305 1.63795 0.147915L6.5 5.12038L11.3621 0.147915C11.553 -0.049305 11.8617 -0.049305 12.0526 0.147915L12.8568 0.978757C13.0477 1.17598 13.0477 1.49489 12.8568 1.69211L6.84526 7.85208C6.65435 8.0493 6.34565 8.0493 6.15474 7.85208Z"/></symbol><symbol viewBox="0 0 11 18" fill="currentColor" id="svg-facebook" xmlns="http://www.w3.org/2000/svg"><path d="M7.14599 17.4257V9.48996H10.4038L10.8881 6.38285H7.14599V4.40375C7.14599 3.50716 7.44998 2.89329 9.01585 2.89329H11V0.123131C10.0346 0.0381105 9.06422 -0.00294155 8.0933 0.000163795C5.21369 0.000163795 3.23661 1.44479 3.23661 4.09682V6.37704H0V9.48415H3.24368V17.4257H7.14599Z"/></symbol><symbol viewBox="0 0 19 19" fill="currentColor" id="svg-instagram" xmlns="http://www.w3.org/2000/svg"><path d="M8.999 4.37695C7.77264 4.37695 6.59651 4.86412 5.72934 5.73129C4.86217 6.59846 4.375 7.77459 4.375 9.00095C4.375 10.2273 4.86217 11.4034 5.72934 12.2706C6.59651 13.1378 7.77264 13.625 8.999 13.625C10.2254 13.625 11.4015 13.1378 12.2687 12.2706C13.1358 11.4034 13.623 10.2273 13.623 9.00095C13.623 7.77459 13.1358 6.59846 12.2687 5.73129C11.4015 4.86412 10.2254 4.37695 8.999 4.37695ZM8.999 12.004C8.20229 12.004 7.43821 11.6875 6.87485 11.1241C6.31149 10.5607 5.995 9.79666 5.995 8.99995C5.995 8.20324 6.31149 7.43916 6.87485 6.8758C7.43821 6.31245 8.20229 5.99595 8.999 5.99595C9.79571 5.99595 10.5598 6.31245 11.1231 6.8758C11.6865 7.43916 12.003 8.20324 12.003 8.99995C12.003 9.79666 11.6865 10.5607 11.1231 11.1241C10.5598 11.6875 9.79571 12.004 8.999 12.004Z"/><path d="M13.806 5.28491C14.4014 5.28491 14.884 4.80227 14.884 4.20691C14.884 3.61154 14.4014 3.12891 13.806 3.12891C13.2107 3.12891 12.728 3.61154 12.728 4.20691C12.728 4.80227 13.2107 5.28491 13.806 5.28491Z"/><path d="M17.533 3.11088C17.3015 2.51306 16.9477 1.97017 16.4943 1.51694C16.0409 1.06372 15.4979 0.710154 14.9 0.478883C14.2003 0.21624 13.4611 0.0742239 12.714 0.0588827C11.751 0.0168827 11.446 0.00488281 9.00395 0.00488281C6.56195 0.00488281 6.24895 0.00488271 5.29395 0.0588827C4.54734 0.0734396 3.80871 0.215484 3.10995 0.478883C2.51189 0.709884 1.96872 1.06335 1.51529 1.51661C1.06186 1.96987 0.708182 2.51291 0.476953 3.11088C0.214258 3.8105 0.0725676 4.54972 0.0579531 5.29688C0.0149531 6.25888 0.00195312 6.56388 0.00195312 9.00688C0.00195312 11.4489 0.00195312 11.7599 0.0579531 12.7169C0.0729531 13.4649 0.213953 14.2029 0.476953 14.9039C0.708831 15.5016 1.06285 16.0445 1.51639 16.4977C1.96993 16.9509 2.51302 17.3045 3.11095 17.5359C3.80839 17.8091 4.54732 17.9613 5.29595 17.9859C6.25895 18.0279 6.56395 18.0409 9.00595 18.0409C11.448 18.0409 11.761 18.0409 12.716 17.9859C13.4631 17.9707 14.2022 17.829 14.902 17.5669C15.4997 17.3351 16.0426 16.9812 16.4959 16.5279C16.9493 16.0745 17.3031 15.5316 17.535 14.9339C17.798 14.2339 17.939 13.4959 17.954 12.7479C17.997 11.7859 18.01 11.4809 18.01 9.03788C18.01 6.59488 18.01 6.28488 17.954 5.32788C17.9423 4.57016 17.7999 3.82013 17.533 3.11088ZM16.315 12.6429C16.3085 13.2192 16.2033 13.7901 16.004 14.3309C15.8538 14.7198 15.6239 15.0729 15.329 15.3676C15.0342 15.6622 14.6809 15.8919 14.292 16.0419C13.7572 16.2403 13.1923 16.3455 12.622 16.3529C11.672 16.3969 11.404 16.4079 8.96795 16.4079C6.52995 16.4079 6.28095 16.4079 5.31295 16.3529C4.74288 16.3459 4.17828 16.2407 3.64395 16.0419C3.25364 15.8929 2.89895 15.6636 2.60284 15.3688C2.30673 15.0741 2.07579 14.7205 1.92495 14.3309C1.7284 13.7959 1.62326 13.2317 1.61395 12.6619C1.57095 11.7119 1.56095 11.4439 1.56095 9.00788C1.56095 6.57088 1.56095 6.32188 1.61395 5.35288C1.62042 4.77691 1.72561 4.2063 1.92495 3.66588C2.22995 2.87688 2.85495 2.25588 3.64395 1.95388C4.17854 1.75602 4.74298 1.65085 5.31295 1.64288C6.26395 1.59988 6.53095 1.58788 8.96795 1.58788C11.405 1.58788 11.655 1.58788 12.622 1.64288C13.1924 1.64974 13.7573 1.75495 14.292 1.95388C14.6809 2.10416 15.0341 2.33409 15.3289 2.62891C15.6238 2.92374 15.8537 3.27695 16.004 3.66588C16.2005 4.20083 16.3056 4.76504 16.315 5.33488C16.358 6.28588 16.369 6.55288 16.369 8.98988C16.369 11.4259 16.369 11.6879 16.326 12.6439H16.315V12.6429Z"/></symbol><symbol viewBox="0 0 22 30" fill="currentColor" id="svg-location" xmlns="http://www.w3.org/2000/svg"><path d="M11 4.97339C9.99259 4.97339 9.00784 5.27211 8.17025 5.83177C7.33265 6.39143 6.67983 7.1869 6.29433 8.11759C5.90882 9.04827 5.80796 10.0724 6.00449 11.0604C6.20101 12.0484 6.68611 12.9559 7.39842 13.6683C8.11074 14.3806 9.01828 14.8657 10.0063 15.0622C10.9943 15.2587 12.0184 15.1579 12.9491 14.7724C13.8798 14.3868 14.6752 13.734 15.2349 12.8964C15.7946 12.0588 16.0933 11.0741 16.0933 10.0667C16.0933 8.71589 15.5567 7.42038 14.6015 6.46519C13.6463 5.51001 12.3508 4.97339 11 4.97339ZM11 13.3823C10.3442 13.3823 9.70317 13.1878 9.15793 12.8235C8.61269 12.4592 8.18772 11.9414 7.93678 11.3355C7.68583 10.7297 7.62017 10.063 7.7481 9.41989C7.87604 8.77674 8.19181 8.18596 8.6555 7.72227C9.11919 7.25858 9.70996 6.94281 10.3531 6.81487C10.9963 6.68694 11.6629 6.7526 12.2688 7.00355C12.8746 7.25449 13.3924 7.67946 13.7567 8.2247C14.1211 8.76994 14.3155 9.41097 14.3155 10.0667C14.3132 10.9445 13.9628 11.7856 13.3413 12.4054C12.7197 13.0253 11.8778 13.3734 11 13.3734V13.3823Z"/><path d="M11 0.777832C8.23133 0.780145 5.57603 1.878 3.61409 3.83161C1.65216 5.78521 0.54302 8.43582 0.528931 11.2045C0.528931 15.3556 2.85782 18.8312 4.56449 21.3645L4.8756 21.8267C6.57362 24.2877 8.39522 26.6611 10.3334 28.9378L11.0089 29.7289L11.6845 28.9378C13.6224 26.6609 15.444 24.2875 17.1423 21.8267L17.4534 21.3556C19.1511 18.8223 21.48 15.3556 21.48 11.2045C21.4659 8.43428 20.3556 5.78233 18.3917 3.82847C16.4279 1.87461 13.7703 0.777796 11 0.777832ZM15.9689 20.3334L15.6489 20.8045C14.12 23.0978 12.0934 25.6667 11 26.9378C9.95115 25.6667 7.88004 23.0978 6.35115 20.8045L6.04004 20.3334C4.46671 17.9867 2.30671 14.7778 2.30671 11.1689C2.30671 10.0273 2.53157 8.89687 2.96845 7.84215C3.40533 6.78743 4.04568 5.82908 4.85293 5.02183C5.66018 4.21458 6.61852 3.57423 7.67325 3.13735C8.72797 2.70047 9.85842 2.47561 11 2.47561C12.1417 2.47561 13.2721 2.70047 14.3268 3.13735C15.3816 3.57423 16.3399 4.21458 17.1472 5.02183C17.9544 5.82908 18.5948 6.78743 19.0316 7.84215C19.4685 8.89687 19.6934 10.0273 19.6934 11.1689C19.6934 14.8134 17.5423 18.0223 15.9689 20.3334Z"/></symbol><symbol viewBox="0 0 20 19" fill="currentColor" id="svg-rating-star" xmlns="http://www.w3.org/2000/svg"><path d="M10 0L12.2451 6.90983H19.5106L13.6327 11.1803L15.8779 18.0902L10 13.8197L4.12215 18.0902L6.36729 11.1803L0.489435 6.90983H7.75486L10 0Z"/></symbol><symbol viewBox="0 0 20 15" fill="currentColor" id="svg-twitter" xmlns="http://www.w3.org/2000/svg"><path d="M17.9452 4.39489C17.9585 4.54773 17.9585 4.69969 17.9585 4.85166C17.9585 9.50231 13.8337 14.8613 6.29554 14.8613C3.97313 14.8613 1.81559 14.284 0 13.2814C0.329737 13.3137 0.647262 13.325 0.99023 13.325C2.83533 13.3288 4.62818 12.7994 6.07979 11.822C5.22432 11.8087 4.39505 11.5665 3.70775 11.1292C3.02046 10.6918 2.50945 10.0813 2.24608 9.38266C2.49949 9.41498 2.75392 9.43681 3.02056 9.43681C3.38795 9.43681 3.75738 9.39314 4.10035 9.31716C3.17195 9.1563 2.33714 8.72445 1.73786 8.09505C1.13857 7.46565 0.811819 6.67755 0.813149 5.86476V5.82109C1.35966 6.08223 1.99369 6.24555 2.66538 6.26738C2.10268 5.94649 1.64128 5.51107 1.32235 4.99995C1.00342 4.48883 0.836875 3.91791 0.837574 3.33812C0.837574 2.68485 1.0401 2.08572 1.39528 1.56345C2.42534 2.6508 3.71006 3.54036 5.16623 4.1745C6.6224 4.80865 8.21755 5.17324 9.84836 5.24467C9.78526 4.98266 9.74659 4.71105 9.74659 4.43856C9.74632 3.97652 9.85217 3.51896 10.0581 3.09204C10.264 2.66513 10.5659 2.27723 10.9467 1.95051C11.3274 1.6238 11.7794 1.36468 12.2769 1.18797C12.7743 1.01126 13.3075 0.920425 13.8459 0.920655C15.0265 0.920655 16.092 1.34511 16.841 2.03157C17.7588 1.87927 18.6389 1.59177 19.4423 1.18179C19.1364 1.99473 18.4956 2.68406 17.6399 3.12065C18.4539 3.04099 19.2494 2.85729 20 2.57568C19.4394 3.27707 18.7447 3.89213 17.9452 4.39489Z"/></symbol><symbol viewBox="0 0 14 14" fill="currentColor" id="svg-world" xmlns="http://www.w3.org/2000/svg"><path fill-rule="evenodd" clip-rule="evenodd" d="M13.4 6.99123C13.4 7.42404 13.3559 7.85626 13.2694 8.27758C13.185 8.68888 13.06 9.09268 12.8962 9.4787C12.7362 9.85789 12.5378 10.2233 12.3059 10.5641C12.0774 10.9027 11.8143 11.2204 11.5252 11.5099C11.2355 11.7983 10.9167 12.0607 10.5783 12.2901C10.2364 12.5204 9.87047 12.7186 9.49106 12.8793C9.10448 13.0422 8.69975 13.167 8.2888 13.2513C7.86693 13.338 7.43313 13.3823 6.99969 13.3823C6.56592 13.3823 6.13215 13.338 5.71088 13.2513C5.2993 13.167 4.89459 13.0422 4.50832 12.8793C4.12893 12.7186 3.76264 12.5204 3.42076 12.2901C3.0823 12.0607 2.76354 11.7983 2.47446 11.5099C2.18508 11.2204 1.92193 10.9027 1.69317 10.5641C1.46253 10.2233 1.26376 9.85787 1.10313 9.4787C0.939356 9.09268 0.814055 8.68886 0.72936 8.27758C0.643738 7.85626 0.599976 7.42404 0.599976 6.99123C0.599976 6.55808 0.643713 6.12494 0.729385 5.70455C0.81408 5.29324 0.939381 4.88882 1.10316 4.50342C1.26378 4.12396 1.46256 3.75823 1.69319 3.41744C1.92195 3.07854 2.18511 2.76147 2.47449 2.47155C2.76357 2.18319 3.08233 1.92139 3.42078 1.69234C3.76267 1.46108 4.12895 1.26295 4.50834 1.10191C4.89462 0.938663 5.2993 0.813543 5.7109 0.729921C6.13217 0.643797 6.56594 0.600098 6.99971 0.600098C7.43316 0.600098 7.86693 0.643797 8.28882 0.729921C8.69977 0.813568 9.10448 0.938689 9.49109 1.10191C9.87047 1.26292 10.2364 1.46108 10.5783 1.69234C10.9168 1.92139 11.2356 2.18319 11.5252 2.47155C11.8143 2.76147 12.0775 3.07854 12.3059 3.41744C12.5378 3.75823 12.7362 4.12398 12.8962 4.50342C13.06 4.88882 13.185 5.29324 13.2694 5.70455C13.3559 6.12494 13.4 6.55808 13.4 6.99123ZM4.66766 2.05463C3.14351 2.77334 2.00595 4.17575 1.65124 5.86591C1.79533 5.86716 4.07295 5.89587 6.69713 5.19963C5.75116 3.52133 4.74049 2.15171 4.66766 2.05463ZM7.14997 6.04006C4.33577 6.88136 1.6353 6.82082 1.53844 6.8171C1.53686 6.87575 1.53405 6.93254 1.53405 6.99122C1.53405 8.39331 2.06376 9.67153 2.93444 10.638C2.93256 10.6352 4.42828 7.98546 7.3778 7.03304C7.44904 7.00933 7.52156 6.98809 7.59343 6.96751C7.45626 6.65733 7.30653 6.34651 7.14997 6.04006ZM10.6092 2.89504C9.64698 2.04776 8.3835 1.53382 6.99967 1.53382C6.55558 1.53382 6.12461 1.5875 5.71179 1.68673C5.79365 1.79659 6.82028 3.15656 7.75501 4.8704C9.81732 4.09837 10.5958 2.915 10.6092 2.89504ZM7.96599 7.87187C7.95382 7.8759 7.94165 7.87937 7.92975 7.88373C4.70494 9.00632 3.65184 11.2687 3.64045 11.2934C4.56833 12.0139 5.73214 12.4486 6.99971 12.4486C7.7566 12.4486 8.47757 12.2947 9.13354 12.0161C9.0526 11.5393 8.73509 9.86785 7.96599 7.87187ZM10.0539 11.5174C11.2811 10.6905 12.1527 9.37729 12.3959 7.85624C12.2834 7.82004 10.7542 7.33664 8.99006 7.61908C9.70697 9.58636 9.99825 11.1885 10.0539 11.5174ZM8.1757 5.68366C8.30256 5.94393 8.4254 6.20883 8.53883 6.47505C8.57916 6.57056 8.61854 6.66418 8.65697 6.75779C10.5346 6.52185 12.3843 6.9188 12.4634 6.93501C12.4509 5.64121 11.9874 4.45379 11.2206 3.52416C11.2102 3.5388 10.3336 4.80361 8.1757 5.68366Z"/></symbol><symbol viewBox="0 0 14 10" fill="currentColor" id="svg-youtube" xmlns="http://www.w3.org/2000/svg"><path fill-rule="evenodd" clip-rule="evenodd" d="M12.0008 0.874762C12.5515 1.02589 12.9853 1.4712 13.1325 2.03671C13.4 3.06162 13.4 5.2001 13.4 5.2001C13.4 5.2001 13.4 7.3385 13.1325 8.36349C12.9853 8.92899 12.5515 9.3743 12.0008 9.52551C11.0027 9.8001 6.99998 9.8001 6.99998 9.8001C6.99998 9.8001 2.99728 9.8001 1.9991 9.52551C1.44834 9.3743 1.01459 8.92899 0.867394 8.36349C0.599976 7.3385 0.599976 5.2001 0.599976 5.2001C0.599976 5.2001 0.599976 3.06162 0.867394 2.03671C1.01459 1.4712 1.44834 1.02589 1.9991 0.874762C2.99728 0.600098 6.99998 0.600098 6.99998 0.600098C6.99998 0.600098 11.0027 0.600098 12.0008 0.874762ZM5.79999 3.40006V7.40006L8.99999 5.40013L5.79999 3.40006Z"/></symbol></svg>